<mxfile host="app.diagrams.net" modified="2023-10-23T19:10:06.440Z" agent="Mozilla/5.0 (Macintosh; Intel Mac OS X 10_15_7) AppleWebKit/537.36 (KHTML, like Gecko) Chrome/118.0.0.0 Safari/537.36" etag="Kch3psdiIpAl3DB2zQUv" version="22.0.6" type="google">
  <diagram id="C5RBs43oDa-KdzZeNtuy" name="Page-1">
    <mxGraphModel grid="1" page="1" gridSize="10" guides="1" tooltips="1" connect="1" arrows="1" fold="1" pageScale="1" pageWidth="827" pageHeight="1169" math="0" shadow="0">
      <root>
        <mxCell id="WIyWlLk6GJQsqaUBKTNV-0" />
        <mxCell id="WIyWlLk6GJQsqaUBKTNV-1" parent="WIyWlLk6GJQsqaUBKTNV-0" />
        <mxCell id="m1pHEiOYZpdg6kw2jN30-0" value="" style="shape=folder;fontStyle=1;spacingTop=10;tabWidth=60;tabHeight=20;tabPosition=left;html=1;whiteSpace=wrap;" vertex="1" parent="WIyWlLk6GJQsqaUBKTNV-1">
          <mxGeometry x="50" y="30" width="450" height="300" as="geometry" />
        </mxCell>
        <mxCell id="m1pHEiOYZpdg6kw2jN30-1" value="ConexionBDD" style="swimlane;fontStyle=1;align=center;verticalAlign=top;childLayout=stackLayout;horizontal=1;startSize=26;horizontalStack=0;resizeParent=1;resizeParentMax=0;resizeLast=0;collapsible=1;marginBottom=0;whiteSpace=wrap;html=1;" vertex="1" parent="WIyWlLk6GJQsqaUBKTNV-1">
          <mxGeometry x="195" y="80" width="160" height="86" as="geometry" />
        </mxCell>
        <mxCell id="m1pHEiOYZpdg6kw2jN30-2" value="+ conectarBDD()" style="text;strokeColor=none;fillColor=none;align=left;verticalAlign=top;spacingLeft=4;spacingRight=4;overflow=hidden;rotatable=0;points=[[0,0.5],[1,0.5]];portConstraint=eastwest;whiteSpace=wrap;html=1;" vertex="1" parent="m1pHEiOYZpdg6kw2jN30-1">
          <mxGeometry y="26" width="160" height="26" as="geometry" />
        </mxCell>
        <mxCell id="m1pHEiOYZpdg6kw2jN30-3" value="" style="line;strokeWidth=1;fillColor=none;align=left;verticalAlign=middle;spacingTop=-1;spacingLeft=3;spacingRight=3;rotatable=0;labelPosition=right;points=[];portConstraint=eastwest;strokeColor=inherit;" vertex="1" parent="m1pHEiOYZpdg6kw2jN30-1">
          <mxGeometry y="52" width="160" height="8" as="geometry" />
        </mxCell>
        <mxCell id="m1pHEiOYZpdg6kw2jN30-4" value="+ desconectarBDD()" style="text;strokeColor=none;fillColor=none;align=left;verticalAlign=top;spacingLeft=4;spacingRight=4;overflow=hidden;rotatable=0;points=[[0,0.5],[1,0.5]];portConstraint=eastwest;whiteSpace=wrap;html=1;" vertex="1" parent="m1pHEiOYZpdg6kw2jN30-1">
          <mxGeometry y="60" width="160" height="26" as="geometry" />
        </mxCell>
        <mxCell id="m1pHEiOYZpdg6kw2jN30-5" value="BDDCrearParticipante" style="swimlane;fontStyle=1;align=center;verticalAlign=top;childLayout=stackLayout;horizontal=1;startSize=26;horizontalStack=0;resizeParent=1;resizeParentMax=0;resizeLast=0;collapsible=1;marginBottom=0;whiteSpace=wrap;html=1;" vertex="1" parent="WIyWlLk6GJQsqaUBKTNV-1">
          <mxGeometry x="105" y="200" width="340" height="70" as="geometry" />
        </mxCell>
        <mxCell id="m1pHEiOYZpdg6kw2jN30-6" value="" style="line;strokeWidth=1;fillColor=none;align=left;verticalAlign=middle;spacingTop=-1;spacingLeft=3;spacingRight=3;rotatable=0;labelPosition=right;points=[];portConstraint=eastwest;strokeColor=inherit;" vertex="1" parent="m1pHEiOYZpdg6kw2jN30-5">
          <mxGeometry y="26" width="340" height="8" as="geometry" />
        </mxCell>
        <mxCell id="m1pHEiOYZpdg6kw2jN30-7" value="+ existeCorreo(correo: String): boolean&lt;br&gt;+ crearParticipante(participante: Participante)" style="text;strokeColor=none;fillColor=none;align=left;verticalAlign=top;spacingLeft=4;spacingRight=4;overflow=hidden;rotatable=0;points=[[0,0.5],[1,0.5]];portConstraint=eastwest;whiteSpace=wrap;html=1;" vertex="1" parent="m1pHEiOYZpdg6kw2jN30-5">
          <mxGeometry y="34" width="340" height="36" as="geometry" />
        </mxCell>
        <mxCell id="m1pHEiOYZpdg6kw2jN30-8" value="" style="shape=folder;fontStyle=1;spacingTop=10;tabWidth=60;tabHeight=20;tabPosition=left;html=1;whiteSpace=wrap;" vertex="1" parent="WIyWlLk6GJQsqaUBKTNV-1">
          <mxGeometry x="50" y="340" width="450" height="280" as="geometry" />
        </mxCell>
        <mxCell id="m1pHEiOYZpdg6kw2jN30-9" value="&lt;font style=&quot;font-size: 10px;&quot;&gt;Controlador&lt;/font&gt;" style="text;html=1;strokeColor=none;fillColor=none;align=center;verticalAlign=middle;whiteSpace=wrap;rounded=0;" vertex="1" parent="WIyWlLk6GJQsqaUBKTNV-1">
          <mxGeometry x="50" y="330" width="60" height="30" as="geometry" />
        </mxCell>
        <mxCell id="m1pHEiOYZpdg6kw2jN30-10" value="ControladorParticipante" style="swimlane;fontStyle=1;align=center;verticalAlign=top;childLayout=stackLayout;horizontal=1;startSize=26;horizontalStack=0;resizeParent=1;resizeParentMax=0;resizeLast=0;collapsible=1;marginBottom=0;whiteSpace=wrap;html=1;" vertex="1" parent="WIyWlLk6GJQsqaUBKTNV-1">
          <mxGeometry x="60" y="380" width="430" height="70" as="geometry" />
        </mxCell>
        <mxCell id="m1pHEiOYZpdg6kw2jN30-11" value="+ existeCorreo(correo: String)&lt;br&gt;+ crearParticipante(participante: Participante): String" style="text;strokeColor=none;fillColor=none;align=left;verticalAlign=top;spacingLeft=4;spacingRight=4;overflow=hidden;rotatable=0;points=[[0,0.5],[1,0.5]];portConstraint=eastwest;whiteSpace=wrap;html=1;" vertex="1" parent="m1pHEiOYZpdg6kw2jN30-10">
          <mxGeometry y="26" width="430" height="36" as="geometry" />
        </mxCell>
        <mxCell id="m1pHEiOYZpdg6kw2jN30-12" value="" style="line;strokeWidth=1;fillColor=none;align=left;verticalAlign=middle;spacingTop=-1;spacingLeft=3;spacingRight=3;rotatable=0;labelPosition=right;points=[];portConstraint=eastwest;strokeColor=inherit;" vertex="1" parent="m1pHEiOYZpdg6kw2jN30-10">
          <mxGeometry y="62" width="430" height="8" as="geometry" />
        </mxCell>
        <mxCell id="m1pHEiOYZpdg6kw2jN30-13" value="" style="shape=folder;fontStyle=1;spacingTop=10;tabWidth=60;tabHeight=20;tabPosition=left;html=1;whiteSpace=wrap;" vertex="1" parent="WIyWlLk6GJQsqaUBKTNV-1">
          <mxGeometry x="50" y="660" width="450" height="270" as="geometry" />
        </mxCell>
        <mxCell id="m1pHEiOYZpdg6kw2jN30-14" value="&lt;font style=&quot;font-size: 10px;&quot;&gt;Vista&lt;/font&gt;" style="text;html=1;strokeColor=none;fillColor=none;align=center;verticalAlign=middle;whiteSpace=wrap;rounded=0;" vertex="1" parent="WIyWlLk6GJQsqaUBKTNV-1">
          <mxGeometry x="50" y="650" width="60" height="30" as="geometry" />
        </mxCell>
        <mxCell id="m1pHEiOYZpdg6kw2jN30-15" value="Participante" style="swimlane;fontStyle=1;align=center;verticalAlign=top;childLayout=stackLayout;horizontal=1;startSize=26;horizontalStack=0;resizeParent=1;resizeParentMax=0;resizeLast=0;collapsible=1;marginBottom=0;whiteSpace=wrap;html=1;" vertex="1" parent="WIyWlLk6GJQsqaUBKTNV-1">
          <mxGeometry x="130" y="470" width="290" height="130" as="geometry" />
        </mxCell>
        <mxCell id="m1pHEiOYZpdg6kw2jN30-16" value="" style="line;strokeWidth=1;fillColor=none;align=left;verticalAlign=middle;spacingTop=-1;spacingLeft=3;spacingRight=3;rotatable=0;labelPosition=right;points=[];portConstraint=eastwest;strokeColor=inherit;" vertex="1" parent="m1pHEiOYZpdg6kw2jN30-15">
          <mxGeometry y="26" width="290" height="8" as="geometry" />
        </mxCell>
        <mxCell id="m1pHEiOYZpdg6kw2jN30-17" value="-id: String&lt;br&gt;- nombre : String&lt;br&gt;- correo : String&lt;br&gt;- username : String&amp;nbsp;&lt;br&gt;- foto: String&lt;br&gt;- contraseÃ±a : String" style="text;strokeColor=none;fillColor=none;align=left;verticalAlign=top;spacingLeft=4;spacingRight=4;overflow=hidden;rotatable=0;points=[[0,0.5],[1,0.5]];portConstraint=eastwest;whiteSpace=wrap;html=1;" vertex="1" parent="m1pHEiOYZpdg6kw2jN30-15">
          <mxGeometry y="34" width="290" height="96" as="geometry" />
        </mxCell>
        <mxCell id="m1pHEiOYZpdg6kw2jN30-18" value="VistaCrearCuenta" style="swimlane;fontStyle=1;align=center;verticalAlign=top;childLayout=stackLayout;horizontal=1;startSize=26;horizontalStack=0;resizeParent=1;resizeParentMax=0;resizeLast=0;collapsible=1;marginBottom=0;whiteSpace=wrap;html=1;" vertex="1" parent="WIyWlLk6GJQsqaUBKTNV-1">
          <mxGeometry x="145" y="720" width="260" height="120" as="geometry" />
        </mxCell>
        <mxCell id="m1pHEiOYZpdg6kw2jN30-19" value="+ participante: Participante" style="text;strokeColor=none;fillColor=none;align=left;verticalAlign=top;spacingLeft=4;spacingRight=4;overflow=hidden;rotatable=0;points=[[0,0.5],[1,0.5]];portConstraint=eastwest;whiteSpace=wrap;html=1;" vertex="1" parent="m1pHEiOYZpdg6kw2jN30-18">
          <mxGeometry y="26" width="260" height="26" as="geometry" />
        </mxCell>
        <mxCell id="m1pHEiOYZpdg6kw2jN30-20" value="" style="line;strokeWidth=1;fillColor=none;align=left;verticalAlign=middle;spacingTop=-1;spacingLeft=3;spacingRight=3;rotatable=0;labelPosition=right;points=[];portConstraint=eastwest;strokeColor=inherit;" vertex="1" parent="m1pHEiOYZpdg6kw2jN30-18">
          <mxGeometry y="52" width="260" height="8" as="geometry" />
        </mxCell>
        <mxCell id="m1pHEiOYZpdg6kw2jN30-21" value="+ mostrarFormulario()&lt;br&gt;+ crearParticipante()&lt;br&gt;+ mensajeError(mensaje: String)" style="text;strokeColor=none;fillColor=none;align=left;verticalAlign=top;spacingLeft=4;spacingRight=4;overflow=hidden;rotatable=0;points=[[0,0.5],[1,0.5]];portConstraint=eastwest;whiteSpace=wrap;html=1;" vertex="1" parent="m1pHEiOYZpdg6kw2jN30-18">
          <mxGeometry y="60" width="260" height="60" as="geometry" />
        </mxCell>
        <mxCell id="m1pHEiOYZpdg6kw2jN30-22" value="&lt;font style=&quot;font-size: 10px;&quot;&gt;Modelo&lt;br&gt;&lt;br&gt;&lt;/font&gt;" style="text;html=1;strokeColor=none;fillColor=none;align=center;verticalAlign=middle;whiteSpace=wrap;rounded=0;" vertex="1" parent="WIyWlLk6GJQsqaUBKTNV-1">
          <mxGeometry x="50" y="30" width="60" height="30" as="geometry" />
        </mxCell>
      </root>
    </mxGraphModel>
  </diagram>
</mxfile>
